# xmcd CD database file
#
# Track frame offsets:
#	150
#	30594
#	63675
#	87775
#	111178
#	135263
#	155550
#	175606
#	202337
#	225186
#	245445
#	271166
#	298314
#
# Disc length: 4232 seconds
#
# Revision: 0
# Processed by: cddbd v1.4PL0 Copyright (c) Steve Scherf et al.
# Submitted via: CDex 1.51
#
DISCID=b110860d
DTITLE=Salsa Collector - Sonido Bestial
DYEAR=2001
DGENRE=Salsa
TTITLE0=Sonido Bestial
TTITLE1=Senora
TTITLE2=No Tin Pena
TTITLE3=La Vimari
TTITLE4=Guaguanco Triste
TTITLE5=Fire And Rain
TTITLE6=Cha Cha Huele Chango
TTITLE7=Volver
TTITLE8=Richie's Jala Jala
TTITLE9=Lo Atara La Arache
TTITLE10=Bomba Cmara
TTITLE11=3 and 1 Mozambique
TTITLE12=Cabo E
EXTD=YEAR: 2001
EXTT0=
EXTT1=
EXTT2=
EXTT3=
EXTT4=
EXTT5=
EXTT6=
EXTT7=
EXTT8=
EXTT9=
EXTT10=
EXTT11=
EXTT12=
PLAYORDER=
